# Blender v2.79 (sub 0) OBJ File: 'gravelPlane.blend'
# www.blender.org
mtllib gravelPlane02.mtl
o gravelPlane_Plane.001
v 0.000000 0.000000 0.000000
v 0.000000 0.000000 4.000000
v 4.000000 0.000000 0.000000
v 0.000000 0.000000 -4.000000
v -4.000000 0.000000 0.000000
v -4.000000 0.000000 4.000000
v 4.000000 0.000000 4.000000
v 4.000000 0.000000 -4.000000
v -4.000000 0.000000 -4.000000
v -8.000000 0.000000 -4.000000
v -8.000000 0.000000 0.000000
v -8.000000 0.000000 4.000000
v -4.000000 0.000000 8.000000
v 0.000000 0.000000 8.000000
v 4.000000 0.000000 8.000000
v 8.000000 0.000000 4.000000
v 8.000000 0.000000 0.000000
v 8.000000 0.000000 -4.000000
v 4.000000 0.000000 -8.000000
v 0.000000 0.000000 -8.000000
v -4.000000 0.000000 -8.000000
v -8.000000 0.000000 8.000000
v 8.000000 0.000000 8.000000
v -8.000000 0.000000 -8.000000
v 8.000000 0.000000 -8.000000
vt 0.375022 0.500000
vt 0.187554 0.500000
vt 0.187554 0.250043
vt 0.375022 0.250043
vt 0.187554 0.000087
vt 0.375022 0.000087
vt 0.000087 0.500000
vt 0.000087 0.250043
vt 0.000087 0.000087
vt 0.562489 0.250043
vt 0.562489 0.500000
vt 0.749957 0.250043
vt 0.749957 0.500000
vt 0.562489 0.000087
vt 0.749957 0.000087
vt 0.562489 0.749957
vt 0.375022 0.749957
vt 0.562489 0.999913
vt 0.375022 0.999913
vt 0.749957 0.749957
vt 0.749957 0.999913
vt 0.187554 0.749957
vt 0.000087 0.749957
vt 0.187554 0.999913
vt 0.000087 0.999913
vn 0.0000 1.0000 0.0000
usemtl gravelPlaneShader
s off
f 1/1/1 5/2/1 6/3/1 2/4/1
f 2/4/1 6/3/1 13/5/1 14/6/1
f 5/2/1 11/7/1 12/8/1 6/3/1
f 6/3/1 12/8/1 22/9/1 13/5/1
f 1/1/1 2/4/1 7/10/1 3/11/1
f 3/11/1 7/10/1 16/12/1 17/13/1
f 2/4/1 14/6/1 15/14/1 7/10/1
f 7/10/1 15/14/1 23/15/1 16/12/1
f 1/1/1 3/11/1 8/16/1 4/17/1
f 4/17/1 8/16/1 19/18/1 20/19/1
f 3/11/1 17/13/1 18/20/1 8/16/1
f 8/16/1 18/20/1 25/21/1 19/18/1
f 1/1/1 4/17/1 9/22/1 5/2/1
f 5/2/1 9/22/1 10/23/1 11/7/1
f 4/17/1 20/19/1 21/24/1 9/22/1
f 9/22/1 21/24/1 24/25/1 10/23/1
